<?xml version="1.0" encoding="UTF-8" standalone="no"?>
<!-- Created with Inkscape (http://www.inkscape.org/) -->

<svg
   width="46.566666mm"
   height="46.566666mm"
   viewBox="0 0 46.566665 46.566665"
   version="1.1"
   id="svg1"
   xml:space="preserve"
   inkscape:version="1.4.2 (f4327f4, 2025-05-13)"
   sodipodi:docname="antra_logo.svg"
   xmlns:inkscape="http://www.inkscape.org/namespaces/inkscape"
   xmlns:sodipodi="http://sodipodi.sourceforge.net/DTD/sodipodi-0.dtd"
   xmlns="http://www.w3.org/2000/svg"
   xmlns:svg="http://www.w3.org/2000/svg"><sodipodi:namedview
     id="namedview1"
     pagecolor="#ffffff"
     bordercolor="#000000"
     borderopacity="0.25"
     inkscape:showpageshadow="2"
     inkscape:pageopacity="0.0"
     inkscape:pagecheckerboard="0"
     inkscape:deskcolor="#d1d1d1"
     inkscape:document-units="mm"
     inkscape:zoom="6.7241582"
     inkscape:cx="144.70213"
     inkscape:cy="125.44321"
     inkscape:window-width="3840"
     inkscape:window-height="2089"
     inkscape:window-x="1912"
     inkscape:window-y="-8"
     inkscape:window-maximized="1"
     inkscape:current-layer="layer1" /><defs
     id="defs1" /><g
     inkscape:label="Vrstva 1"
     inkscape:groupmode="layer"
     id="layer1"
     transform="translate(-71.134933,-92.320816)"><rect
       style="fill:#00a3e8;fill-opacity:1;stroke:none;stroke-width:1;stroke-opacity:1"
       id="rect1"
       width="46.566666"
       height="46.566666"
       x="71.134933"
       y="92.320816" /><path
       style="fill:#fef200;fill-opacity:1;stroke:none;stroke-width:1;stroke-opacity:1"
       d="m 93.718296,108.34707 -5.731612,4.06222 -4.423914,3.97874 -2.253692,3.28315 -1.725048,2.9771 -1.752872,2.47628 -1.168581,2.53193 1.530285,-1.33552 0.389527,0.3617 0.139117,1.80852 0.472997,3.47792 1.140757,3.7005 2.058929,0.0835 -0.111293,-2.55975 0.16694,-3.67268 0.361703,-0.50082 0.528644,0.69558 0.528644,1.50247 1.669402,4.50738 1.864165,-0.0278 1.029464,-7.59578 5.036028,-3.36663 3.47792,-2.92145 1.001641,-1.47464 1.307697,-1.97546 1.836346,-2.42063 0.44517,-0.3617 0.33388,0.44517 0.52864,3.25533 0.19477,0.1113 1.11293,-0.27824 0.69559,-1.1964 0.11129,-3.17186 2.86581,-2.11458 0.63993,0.22259 1.00164,1.41899 1.02947,0.55647 0.41735,0.0278 0.25041,-1.11293 0.44517,-0.13912 -0.0835,-0.61211 -1.91981,-3.50575 -3.97874,0.97382 -0.0278,-0.75123 0.30605,-1.86417 0.473,-2.83798 0.61211,-1.44681 4.98039,-5.842908 -0.0835,-1.641579 -0.44517,0.02782 -1.86416,0.528644 -1.7807,0.50082 -1.1964,-0.695584 -1.44682,0.751231 -1.05728,0.945994 -0.80688,1.001641 -0.473,0.361703 -0.44517,-0.278233 -0.36171,-2.198045 -0.19476,-0.834701 -0.473,-0.16694 -0.61211,0.472997 -0.556468,1.029464 -0.918171,1.780695 -0.306057,0.973821 -0.584291,2.67104 -0.25041,2.08675 -0.278233,0.44518 -1.335522,1.14076 z"
       id="path2" /><rect
       style="fill:none;fill-opacity:1;stroke:#e84400;stroke-width:2.6;stroke-linecap:round;stroke-linejoin:round;stroke-opacity:1;paint-order:markers fill stroke;stroke-dasharray:none"
       id="rect2"
       width="37.459457"
       height="41.866451"
       x="75.585854"
       y="94.91201" /><path
       style="fill:#000000"
       d="m 79.985399,135.28221 c -0.59787,-1.14907 -1.4675,-5.23897 -1.4675,-6.9017 0,-1.89213 -0.34146,-2.0623 -1.37051,-0.68302 -0.39809,0.53358 -0.72883,0.78486 -0.73498,0.55841 -0.0207,-0.7606 1.29307,-3.46408 2.21674,-4.5618 0.50337,-0.59822 1.45684,-2.12678 2.11882,-3.39681 0.66199,-1.27004 1.66135,-2.89567 2.2208,-3.61253 0.91979,-1.17858 5.68748,-5.12166 8.66486,-7.16622 0.64448,-0.44256 2.21201,-1.57511 3.48342,-2.51678 l 2.31165,-1.71213 0.42428,-2.72907 0.42428,-2.729081 1.10558,-2.07429 c 1.516491,-2.84521 2.094121,-2.80557 2.592161,0.1779 l 0.22874,1.37023 1.29805,-1.2362 c 0.71393,-0.67992 1.60519,-1.39862 1.98058,-1.59712 l 0.68252,-0.36091 0.60112,0.37541 0.60112,0.3754 2.04585,-0.58199 c 1.12522,-0.3201 2.07306,-0.54569 2.10632,-0.50131 0.0333,0.0444 0.15593,0.48037 0.27262,0.96885 l 0.21216,0.88816 -1.76874,2.11045 c -0.97282,1.160751 -2.3013,2.666081 -2.9522,3.345181 -0.65089,0.6791 -1.25585,1.6316 -1.34435,2.11667 l -0.16091,0.88194 -0.0481,-1.11713 c -0.0264,-0.61442 0.0736,-1.17005 0.22224,-1.23472 0.75606,-0.32894 5.37417,-6.040151 5.37417,-6.646221 v -0.70332 l -0.61737,0.0268 c -0.33954,0.0148 -1.16421,0.22441 -1.83259,0.46589 l -1.21523,0.43904 0.42148,0.26049 c 0.75331,0.46557 0.44591,0.92441 -0.61932,0.92441 -0.61907,0 -1.1865,0.25015 -1.40038,0.61736 -0.19777,0.33955 -0.36198,0.45861 -0.36491,0.26458 -0.0102,-0.67491 0.51849,-1.16438 1.39498,-1.29152 l 0.88195,-0.12793 -0.94326,-0.63615 -0.94326,-0.63615 -0.99702,0.51774 c -0.54836,0.28476 -1.36222,1.01388 -1.80858,1.62027 -0.98931,1.344001 -1.34513,1.179511 -1.66788,-0.77102 -0.34127,-2.06246 -0.47267,-2.18089 -1.28044,-1.15398 -0.912011,1.15944 -1.918871,4.084321 -2.242751,6.515091 -0.29721,2.23061 -0.12356,2.02669 -4.22792,4.96481 -8.3436,5.97276 -10.90383,8.4213 -12.86459,12.30335 l -0.78235,1.54894 0.64986,-0.186 c 0.35742,-0.10231 0.96735,-0.29272 1.35541,-0.42314 0.38805,-0.13043 0.0705,0.108 -0.70556,0.52984 -1.84615,1.00343 -2.947,2.02825 -3.57854,3.33141 l -0.5129,1.05833 1.12624,-1.34341 c 0.9985,-1.19104 5.10621,-3.68873 5.46932,-3.32562 0.0768,0.0768 -0.66802,0.51796 -1.65519,0.98033 -0.98717,0.46236 -2.19547,1.31677 -2.68511,1.89868 l -0.89026,1.05801 0.1792,2.83545 c 0.0986,1.5595 0.47388,3.70858 0.83405,4.77573 l 0.65486,1.94028 0.88194,0.10116 0.88195,0.10116 0.01,-3.53278 c 0.005,-1.94303 0.16407,-3.68634 0.35278,-3.87402 l 0.3431,-0.34124 1.38907,3.86105 1.38906,3.86105 h 0.77574 0.77574 l 0.20176,-1.4993 c 0.11096,-0.82462 0.3045,-2.53118 0.43009,-3.79236 l 0.22834,-2.29306 2.28607,-1.41111 c 1.25734,-0.77611 2.64889,-1.72861 3.09232,-2.11667 2.8061,-2.45564 4.07209,-3.66236 4.07209,-3.88144 0,-0.1377 0.47625,-0.85167 1.05834,-1.58661 0.58208,-0.73494 1.05833,-1.47647 1.05833,-1.64784 0,-0.60665 2.086191,-2.58533 2.714141,-2.57427 l 0.63725,0.0112 -0.52917,0.42975 -0.52917,0.42975 0.45513,2.41275 0.69609,1.48735 -0.9628,0.25136 -0.0295,-0.42498 -0.31705,-2.06869 c -0.15908,-0.64043 -0.36444,-1.23964 -0.45636,-1.33156 -0.0919,-0.0919 -0.98094,1.06707 -1.975601,2.57554 -2.39467,3.63171 -3.31438,4.55975 -7.43284,7.50016 l -3.47887,2.48377 -0.22422,2.02381 c -0.12332,1.1131 -0.31499,2.77789 -0.42594,3.69952 l -0.20174,1.67569 h -1.14056 -1.14055 l -0.9536,-2.73403 c -0.52447,-1.50371 -1.09667,-2.96387 -1.27154,-3.24479 l -0.31795,-0.51077 -0.24115,0.96081 c -0.13263,0.52844 -0.1757,1.9886 -0.0957,3.24479 l 0.14544,2.28399 h -1.15084 -1.15083 z m 22.168611,-15.94577 c 0,-0.22651 0.33537,-0.26069 0.52423,-0.14397 0.41941,0.25921 1.3319,-1.01203 1.64547,-2.08617 l 0.0236,-2.01553 0.30416,-0.12787 -0.0686,2.41584 c 0.0385,1.37032 -0.27714,1.82949 -1.46227,2.12694 l -0.96661,0.2426 z m 2.12451,-4.16256 c -0.004,-0.24254 -0.28565,-0.44446 -0.6252,-0.44872 -0.33955,-0.004 0.0638,-0.3169 0.89634,-0.69475 0.83253,-0.37786 1.75669,-0.93 2.05367,-1.22698 0.76178,-0.76178 1.06849,-0.68269 1.94378,0.50121 0.42338,0.57265 1.00289,1.13064 1.2878,1.23997 l 0.51802,0.19878 -0.18587,-0.7108 -0.18588,-0.7108 h 0.51816 0.51815 l -0.96003,-1.76388 -0.96002,-1.76389 h -0.77065 c -0.42386,0 -1.69348,0.3175 -2.82139,0.70555 -2.15269,0.74064 -3.99161,0.95351 -2.05379,0.23775 1.47797,-0.54591 1.45793,-0.51647 1.85927,-2.7301 l 0.48535,-2.65515 0.11079,-0.1404 -0.40158,2.77203 -0.15308,1.89384 1.13486,-0.2555 c 0.62417,-0.14052 1.47961,-0.3342 1.90099,-0.43038 l 0.76614,-0.17489 1.08263,1.88793 c 1.09533,1.91007 1.38132,3.12265 0.73648,3.12265 -0.19403,0 -0.35278,0.23813 -0.35278,0.52917 0,0.86994 -0.98246,0.60213 -2.10669,-0.57427 l -1.0545,-1.10343 -0.97704,0.61837 c -0.53738,0.3401 -1.25133,0.95571 -1.58656,1.36801 -0.33524,0.41231 -0.61305,0.55121 -0.61737,0.30868 z"
       id="path1"
       sodipodi:nodetypes="csscsscscccccsccscccccscccsccssccccssscscccssscsccccccccssccccscccccccccccscscscscccccccccscscscccccscsccccccsscccscccccssscccccccscsscccccccssssccsc" /></g></svg>
